<svg width="154" height="140" xmlns="http://www.w3.org/2000/svg"><style>.svg-element {font-family: 'Courier New', Courier, monospace;font-size: 16px;fill: black;font-weight: bold;dominant-baseline: middle;text-anchor: middle;}.svg-element-charge-border {stroke: black;stroke-width: 0.3px;fill: white;r: 2.5px;}.svg-element-charge {font-family: 'Courier New', Courier, monospace;font-size: 3px;fill: black;dominant-baseline: central;text-anchor: middle;}.svg-ligation {stroke-width: 1px;stroke: black;}.svg-element-H {fill: #727272;}.svg-element-S {fill: #f7cd29;}.svg-element-Na {fill: #f7d653;}.svg-element-Cl {fill: #21d122;}.svg-element-F {fill: #aed482;}.svg-element-N {fill: #7878fa;}.svg-element-O {fill: #eb3738;}.svg-element-C {fill: #000000;}</style><text class="svg-element svg-element-C" x="61.9615" y="40">C</text><text class="svg-element svg-element-C" x="87.9423" y="55">C</text><text class="svg-element svg-element-C" x="87.9423" y="85">C</text><text class="svg-element svg-element-C" x="61.9615" y="100">C</text><text class="svg-element svg-element-C" x="35.9808" y="85">C</text><text class="svg-element svg-element-C" x="35.9808" y="55">C</text><text class="svg-element svg-element-H" x="61.9615" y="10">H</text><text class="svg-element svg-element-O" x="113.923" y="40">O</text><text class="svg-element svg-element-H" x="143.923" y="40">H</text><text class="svg-element svg-element-H" x="113.923" y="100">H</text><text class="svg-element svg-element-H" x="61.9615" y="130">H</text><text class="svg-element svg-element-H" x="10" y="100">H</text><text class="svg-element svg-element-H" x="10" y="40">H</text><line class="svg-ligation" x1="81.0141" y1="89" x2="68.8897" y2="96"></line><line class="svg-ligation" x1="89.3315" y1="62.8785" x2="89.3315" y2="77.1215"></line><line class="svg-ligation" x1="86.5531" y1="62.8785" x2="86.5531" y2="77.1215"></line><line class="svg-ligation" x1="94.8705" y1="89" x2="106.995" y2="96"></line><line class="svg-ligation" x1="61.9615" y1="108" x2="61.9615" y2="122"></line><line class="svg-ligation" x1="29.0526" y1="89" x2="16.9282" y2="96"></line><line class="svg-ligation" x1="29.0526" y1="51" x2="16.9282" y2="44"></line><line class="svg-ligation" x1="68.8897" y1="44" x2="81.0141" y2="51"></line><line class="svg-ligation" x1="61.9615" y1="32" x2="61.9615" y2="18"></line><line class="svg-ligation" x1="94.8705" y1="51" x2="106.995" y2="44"></line><line class="svg-ligation" x1="55.8332" y1="45.1423" x2="43.4983" y2="52.2638"></line><line class="svg-ligation" x1="54.444" y1="42.7362" x2="42.1091" y2="49.8577"></line><line class="svg-ligation" x1="35.9808" y1="77" x2="35.9808" y2="63"></line><line class="svg-ligation" x1="121.923" y1="40" x2="135.923" y2="40"></line><line class="svg-ligation" x1="54.444" y1="97.2638" x2="42.1091" y2="90.1423"></line><line class="svg-ligation" x1="55.8332" y1="94.8577" x2="43.4983" y2="87.7362"></line></svg>